<?xml version="1.0" encoding="UTF-8" standalone="no"?>
<!-- Created with Inkscape (http://www.inkscape.org/) -->

<svg
   version="1.1"
   id="svg40507"
   width="2000"
   height="1333.3333"
   viewBox="0 0 2000 1333.3333"
   sodipodi:docname="dogpooping.svg"
   xml:space="preserve"
   inkscape:version="1.2.2 (732a01da63, 2022-12-09)"
   xmlns:inkscape="http://www.inkscape.org/namespaces/inkscape"
   xmlns:sodipodi="http://sodipodi.sourceforge.net/DTD/sodipodi-0.dtd"
   xmlns="http://www.w3.org/2000/svg"
   xmlns:svg="http://www.w3.org/2000/svg"><defs
     id="defs40511"><clipPath
       clipPathUnits="userSpaceOnUse"
       id="clipPath41340"><g
         id="g41344"
         transform="matrix(0.75000002,0,0,-0.75000002,-741.8687,569.8984)"><path
           d="M 0,0 H 2000 V 1333.3333 H 0 Z"
           id="path41342"
           style="stroke-width:1.33333" /></g></clipPath><clipPath
       clipPathUnits="userSpaceOnUse"
       id="clipPath41346"><g
         id="g41350"
         transform="matrix(0.75000002,0,0,-0.75000002,-902.21087,490.5503)"><path
           d="M 0,0 H 2000 V 1333.3333 H 0 Z"
           id="path41348"
           style="stroke-width:1.33333" /></g></clipPath><clipPath
       clipPathUnits="userSpaceOnUse"
       id="clipPath41352"><g
         id="g41356"
         transform="matrix(0.75000002,0,0,-0.75000002,-881.3428,531.959)"><path
           d="M 0,0 H 2000 V 1333.3333 H 0 Z"
           id="path41354"
           style="stroke-width:1.33333" /></g></clipPath><clipPath
       clipPathUnits="userSpaceOnUse"
       id="clipPath41358"><g
         id="g41362"
         transform="matrix(0.75000002,0,0,-0.75000002,-741.0713,435.7002)"><path
           d="M 0,0 H 2000 V 1333.3333 H 0 Z"
           id="path41360"
           style="stroke-width:1.33333" /></g></clipPath><clipPath
       clipPathUnits="userSpaceOnUse"
       id="clipPath41364"><g
         id="g41368"
         transform="matrix(0.75000002,0,0,-0.75000002,-696.1611,484.9448)"><path
           d="M 0,0 H 2000 V 1333.3333 H 0 Z"
           id="path41366"
           style="stroke-width:1.33333" /></g></clipPath><clipPath
       clipPathUnits="userSpaceOnUse"
       id="clipPath41370"><g
         id="g41374"
         transform="matrix(0.75000002,0,0,-0.75000002,-839.81642,543.9922)"><path
           d="M 0,0 H 2000 V 1333.3333 H 0 Z"
           id="path41372"
           style="stroke-width:1.33333" /></g></clipPath><clipPath
       clipPathUnits="userSpaceOnUse"
       id="clipPath41376"><g
         id="g41380"
         transform="matrix(0.75000002,0,0,-0.75000002,-837.40922,543.9922)"><path
           d="M 0,0 H 2000 V 1333.3333 H 0 Z"
           id="path41378"
           style="stroke-width:1.33333" /></g></clipPath><clipPath
       clipPathUnits="userSpaceOnUse"
       id="clipPath41382"><g
         id="g41386"
         transform="matrix(0.75000002,0,0,-0.75000002,-842.58197,557.4902)"><path
           d="M 0,0 H 2000 V 1333.3333 H 0 Z"
           id="path41384"
           style="stroke-width:1.33333" /></g></clipPath><clipPath
       clipPathUnits="userSpaceOnUse"
       id="clipPath41388"><g
         id="g41392"
         transform="matrix(0.75000002,0,0,-0.75000002,-847.38767,572.5576)"><path
           d="M 0,0 H 2000 V 1333.3333 H 0 Z"
           id="path41390"
           style="stroke-width:1.33333" /></g></clipPath><clipPath
       clipPathUnits="userSpaceOnUse"
       id="clipPath41394"><g
         id="g41398"
         transform="matrix(0.75000002,0,0,-0.75000002,-846.7207,574.3711)"><path
           d="M 0,0 H 2000 V 1333.3333 H 0 Z"
           id="path41396"
           style="stroke-width:1.33333" /></g></clipPath><clipPath
       clipPathUnits="userSpaceOnUse"
       id="clipPath41400"><g
         id="g41404"
         transform="matrix(0.75000002,0,0,-0.75000002,-768.69242,541.5938)"><path
           d="M 0,0 H 2000 V 1333.3333 H 0 Z"
           id="path41402"
           style="stroke-width:1.33333" /></g></clipPath><clipPath
       clipPathUnits="userSpaceOnUse"
       id="clipPath41406"><g
         id="g41410"
         transform="matrix(0.75000002,0,0,-0.75000002,-681.9087,424.6011)"><path
           d="M 0,0 H 2000 V 1333.3333 H 0 Z"
           id="path41408"
           style="stroke-width:1.33333" /></g></clipPath><clipPath
       clipPathUnits="userSpaceOnUse"
       id="clipPath41412"><g
         id="g41416"
         transform="matrix(0.75000002,0,0,-0.75000002,-683.2754,427.1636)"><path
           d="M 0,0 H 2000 V 1333.3333 H 0 Z"
           id="path41414"
           style="stroke-width:1.33333" /></g></clipPath><clipPath
       clipPathUnits="userSpaceOnUse"
       id="clipPath41418"><g
         id="g41422"
         transform="matrix(0.75000002,0,0,-0.75000002,-655.373,438.0112)"><path
           d="M 0,0 H 2000 V 1333.3333 H 0 Z"
           id="path41420"
           style="stroke-width:1.33333" /></g></clipPath><clipPath
       clipPathUnits="userSpaceOnUse"
       id="clipPath41424"><g
         id="g41428"
         transform="matrix(0.75000002,0,0,-0.75000002,-729.4863,435.9331)"><path
           d="M 0,0 H 2000 V 1333.3333 H 0 Z"
           id="path41426"
           style="stroke-width:1.33333" /></g></clipPath><clipPath
       clipPathUnits="userSpaceOnUse"
       id="clipPath41430"><g
         id="g41434"
         transform="matrix(0.75000002,0,0,-0.75000002,-719.4072,405.98)"><path
           d="M 0,0 H 2000 V 1333.3333 H 0 Z"
           id="path41432"
           style="stroke-width:1.33333" /></g></clipPath><clipPath
       clipPathUnits="userSpaceOnUse"
       id="clipPath41436"><g
         id="g41440"
         transform="matrix(0.75000002,0,0,-0.75000002,-727.5786,538.4336)"><path
           d="M 0,0 H 2000 V 1333.3333 H 0 Z"
           id="path41438"
           style="stroke-width:1.33333" /></g></clipPath><clipPath
       clipPathUnits="userSpaceOnUse"
       id="clipPath41442"><g
         id="g41446"
         transform="matrix(0.75000002,0,0,-0.75000002,-753.63092,533.8496)"><path
           d="M 0,0 H 2000 V 1333.3333 H 0 Z"
           id="path41444"
           style="stroke-width:1.33333" /></g></clipPath><clipPath
       clipPathUnits="userSpaceOnUse"
       id="clipPath41448"><g
         id="g41452"
         transform="matrix(0.75000002,0,0,-0.75000002,-864.81542,494.814)"><path
           d="M 0,0 H 2000 V 1333.3333 H 0 Z"
           id="path41450"
           style="stroke-width:1.33333" /></g></clipPath><clipPath
       clipPathUnits="userSpaceOnUse"
       id="clipPath41454"><g
         id="g41458"
         transform="matrix(0.75000002,0,0,-0.75000002,-685.2222,429.1104)"><path
           d="M 0,0 H 2000 V 1333.3333 H 0 Z"
           id="path41456"
           style="stroke-width:1.33333" /></g></clipPath><clipPath
       clipPathUnits="userSpaceOnUse"
       id="clipPath41460"><g
         id="g41464"
         transform="matrix(0.75000002,0,0,-0.75000002,-1039.5654,616.8799)"><path
           d="M 0,0 H 2000 V 1333.3333 H 0 Z"
           id="path41462"
           style="stroke-width:1.33333" /></g></clipPath><clipPath
       clipPathUnits="userSpaceOnUse"
       id="clipPath41466"><g
         id="g41470"
         transform="matrix(0.75000002,0,0,-0.75000002,-992.63672,624.4033)"><path
           d="M 0,0 H 2000 V 1333.3333 H 0 Z"
           id="path41468"
           style="stroke-width:1.33333" /></g></clipPath><clipPath
       clipPathUnits="userSpaceOnUse"
       id="clipPath41472"><g
         id="g41476"
         transform="matrix(0.75000002,0,0,-0.75000002,-913.57517,638.0586)"><path
           d="M 0,0 H 2000 V 1333.3333 H 0 Z"
           id="path41474"
           style="stroke-width:1.33333" /></g></clipPath><clipPath
       clipPathUnits="userSpaceOnUse"
       id="clipPath41478"><g
         id="g41482"
         transform="matrix(0.75000002,0,0,-0.75000002,-898.5361,629.1455)"><path
           d="M 0,0 H 2000 V 1333.3333 H 0 Z"
           id="path41480"
           style="stroke-width:1.33333" /></g></clipPath><clipPath
       clipPathUnits="userSpaceOnUse"
       id="clipPath41484"><g
         id="g41488"
         transform="matrix(0.75000002,0,0,-0.75000002,-829.45412,616.8799)"><path
           d="M 0,0 H 2000 V 1333.3333 H 0 Z"
           id="path41486"
           style="stroke-width:1.33333" /></g></clipPath><clipPath
       clipPathUnits="userSpaceOnUse"
       id="clipPath41490"><g
         id="g41494"
         transform="matrix(0.75000002,0,0,-0.75000002,-757.42577,650.7324)"><path
           d="M 0,0 H 2000 V 1333.3333 H 0 Z"
           id="path41492"
           style="stroke-width:1.33333" /></g></clipPath><clipPath
       clipPathUnits="userSpaceOnUse"
       id="clipPath41496"><g
         id="g41500"
         transform="matrix(0.75000002,0,0,-0.75000002,-723.8257,636.9961)"><path
           d="M 0,0 H 2000 V 1333.3333 H 0 Z"
           id="path41498"
           style="stroke-width:1.33333" /></g></clipPath><clipPath
       clipPathUnits="userSpaceOnUse"
       id="clipPath41502"><g
         id="g41506"
         transform="matrix(0.75000002,0,0,-0.75000002,-675.6724,636.9961)"><path
           d="M 0,0 H 2000 V 1333.3333 H 0 Z"
           id="path41504"
           style="stroke-width:1.33333" /></g></clipPath><clipPath
       clipPathUnits="userSpaceOnUse"
       id="clipPath41508"><g
         id="g41512"
         transform="matrix(0.75000002,0,0,-0.75000002,-627.1924,629.1455)"><path
           d="M 0,0 H 2000 V 1333.3333 H 0 Z"
           id="path41510"
           style="stroke-width:1.33333" /></g></clipPath><clipPath
       clipPathUnits="userSpaceOnUse"
       id="clipPath41514"><g
         id="g41518"
         transform="matrix(0.75000002,0,0,-0.75000002,-525.894,635.8516)"><path
           d="M 0,0 H 2000 V 1333.3333 H 0 Z"
           id="path41516"
           style="stroke-width:1.33333" /></g></clipPath><clipPath
       clipPathUnits="userSpaceOnUse"
       id="clipPath41520"><g
         id="g41524"
         transform="matrix(0.75000002,0,0,-0.75000002,-495.3213,640.9209)"><path
           d="M 0,0 H 2000 V 1333.3333 H 0 Z"
           id="path41522"
           style="stroke-width:1.33333" /></g></clipPath></defs><sodipodi:namedview
     id="namedview40509"
     pagecolor="#ffffff"
     bordercolor="#000000"
     borderopacity="0.25"
     inkscape:showpageshadow="2"
     inkscape:pageopacity="0.0"
     inkscape:pagecheckerboard="0"
     inkscape:deskcolor="#d1d1d1"
     showgrid="false"
     inkscape:zoom="0.86337746"
     inkscape:cx="1038.3639"
     inkscape:cy="593.01988"
     inkscape:window-width="1920"
     inkscape:window-height="1017"
     inkscape:window-x="1912"
     inkscape:window-y="-8"
     inkscape:window-maximized="1"
     inkscape:current-layer="svg40507"><inkscape:page
       x="0"
       y="0"
       id="page40513"
       width="2000"
       height="1333.3333" /></sodipodi:namedview><rect
     style="fill:#ffffff;fill-opacity:1;stroke-width:1.33417;stroke-dasharray:none"
     id="rect44374"
     width="547.84845"
     height="414.6506"
     x="740.11664"
     y="379.90335" /><path
     d="M 0,1333.3333 H 2000 V 0 H 0 Z"
     style="fill:#f7a900;fill-opacity:0;fill-rule:nonzero;stroke:none;stroke-width:1.33333"
     id="path40517" /><g
     id="g40527"
     transform="matrix(1.3333333,0,0,-1.3333333,660.42838,854.56118)"
     clip-path="url(#clipPath41520)"
     style="stroke-width:1.00062995;stroke-dasharray:none;fill:#500f11;fill-opacity:0"><path
       d="m 0,0 c 0,0 -1.472,3.189 -2.043,4.661 -1.228,3.434 -2.454,6.215 -3.026,7.85 -2.781,6.951 -4.253,11.612 -4.253,11.612 0,0 -1.799,-4.743 -4.579,-11.612 -0.654,-1.799 -1.718,-4.661 -3.025,-7.85 C -17.499,3.189 -18.889,0 -18.889,0 c 0,0 1.145,0.163 9.567,0.163 C -0.981,0.163 0,0 0,0 m 2.863,-7.44 h -24.696 c -1.962,-5.071 -3.597,-9.16 -3.597,-9.16 h -9.159 L -9.485,41.947 15.781,-16.6 H 6.624 c 0,0 -1.636,4.089 -3.761,9.16"
       style="fill:#500f11;fill-opacity:0;fill-rule:nonzero;stroke:none;stroke-width:1.00062995;stroke-dasharray:none"
       id="path40529" /></g><g
     id="g40531"
     transform="matrix(1.3333333,0,0,-1.3333333,701.19198,847.80211)"
     clip-path="url(#clipPath41514)"
     style="stroke-width:1.00062995;stroke-dasharray:none;fill:#500f11;fill-opacity:0"><path
       d="m 0,0 h 10.793 c 6.379,0.409 11.612,6.461 11.612,13.901 0,7.196 -4.742,13.084 -10.711,13.82 H 0 Z M 18.562,-5.888 30.01,-21.751 H 19.053 L 8.913,-7.604 H 0 v -14.147 h -8.586 v 57.24 H -1.308 0 11.694 v -0.164 c 10.303,-0.327 18.561,-9.894 18.561,-21.424 0,-8.832 -4.743,-16.354 -11.693,-19.789"
       style="fill:#500f11;fill-opacity:0;fill-rule:nonzero;stroke:none;stroke-width:1.00062995;stroke-dasharray:none"
       id="path40533" /></g><g
     id="g40535"
     transform="matrix(1.3333333,0,0,-1.3333333,836.25651,838.86065)"
     clip-path="url(#clipPath41508)"
     style="stroke-width:1.00062995;stroke-dasharray:none;fill:#500f11;fill-opacity:0"><path
       d="m 0,0 c 0,11.202 -8.585,21.015 -19.216,21.015 h -5.888 V -20.77 h 5.888 C -8.585,-20.77 0,-11.039 0,0 m 8.34,0 c 0,-15.618 -12.102,-28.457 -27.556,-28.457 h -5.642 -8.586 v 57.076 h 8.586 5.642 C -3.762,28.619 8.34,15.699 8.34,0"
       style="fill:#500f11;fill-opacity:0;fill-rule:nonzero;stroke:none;stroke-width:1.00062995;stroke-dasharray:none"
       id="path40537" /></g><g
     id="g40539"
     transform="matrix(1.3333333,0,0,-1.3333333,900.89651,849.32811)"
     clip-path="url(#clipPath41502)"
     style="stroke-width:1.00062995;stroke-dasharray:none;fill:#500f11;fill-opacity:0"><path
       d="m 0,0 c 0,7.851 -5.642,13.9 -13.574,13.9 -7.768,0 -13.655,-6.049 -13.655,-13.9 0,-7.931 5.887,-13.982 13.655,-13.982 C -5.642,-13.982 0,-7.931 0,0 m 7.85,0 c 0,-11.775 -9.648,-21.341 -21.424,-21.341 -11.774,0 -21.097,9.566 -21.097,21.341 0,11.774 9.323,21.26 21.097,21.26 C -1.798,21.26 7.85,11.774 7.85,0"
       style="fill:#500f11;fill-opacity:0;fill-rule:nonzero;stroke:none;stroke-width:1.00062995;stroke-dasharray:none"
       id="path40541" /></g><g
     id="g40543"
     transform="matrix(1.3333333,0,0,-1.3333333,965.10091,849.32811)"
     clip-path="url(#clipPath41496)"
     style="stroke-width:1.00062995;stroke-dasharray:none;fill:#500f11;fill-opacity:0"><path
       d="m 0,0 c 0,7.851 -5.641,13.9 -13.574,13.9 -7.768,0 -13.655,-6.049 -13.655,-13.9 0,-7.931 5.887,-13.982 13.655,-13.982 C -5.641,-13.982 0,-7.931 0,0 m 7.851,0 c 0,-11.775 -9.649,-21.341 -21.425,-21.341 -11.774,0 -21.096,9.566 -21.096,21.341 0,11.774 9.322,21.26 21.096,21.26 C -1.798,21.26 7.851,11.774 7.851,0"
       style="fill:#500f11;fill-opacity:0;fill-rule:nonzero;stroke:none;stroke-width:1.00062995;stroke-dasharray:none"
       id="path40545" /></g><g
     id="g40547"
     transform="matrix(1.3333333,0,0,-1.3333333,1009.901,867.64318)"
     clip-path="url(#clipPath41490)"
     style="stroke-width:1.00062995;stroke-dasharray:none;fill:#500f11;fill-opacity:0"><path
       d="m 0,0 c 7.276,0 14.064,5.806 14.064,13.164 0,7.195 -6.788,13.002 -14.064,13.002 -7.279,0 -12.758,-5.807 -12.758,-13.002 C -12.758,5.806 -7.279,0 0,0 m 0,33.524 c 4.415,0 8.584,-1.389 11.856,-3.679 0.736,-0.572 1.471,-1.308 2.208,-1.881 v 2.699 19.707 h 8.258 V -6.624 H 14.064 V -4.417 -1.8 C 13.327,-2.535 12.51,-3.19 11.692,-3.763 8.339,-6.053 4.334,-7.36 0,-7.36 c -11.205,0 -20.362,9.158 -20.362,20.524 0,11.284 9.157,20.36 20.362,20.36"
       style="fill:#500f11;fill-opacity:0;fill-rule:nonzero;stroke:none;stroke-width:1.00062995;stroke-dasharray:none"
       id="path40549" /></g><g
     id="g40551"
     transform="matrix(1.3333333,0,0,-1.3333333,1105.9388,822.50651)"
     clip-path="url(#clipPath41484)"
     style="stroke-width:1.00062995;stroke-dasharray:none;fill:#500f11;fill-opacity:0"><path
       d="m 0,0 -23.385,-51.925 h -8.751 l 4.498,9.649 1.635,3.761 -1.553,3.517 L -41.785,0 h 7.933 l 10.14,-25.677 1.716,-4.742 2.046,4.661 L -8.258,0 Z"
       style="fill:#500f11;fill-opacity:0;fill-rule:nonzero;stroke:none;stroke-width:1.00062995;stroke-dasharray:none"
       id="path40553" /></g><g
     id="g40555"
     transform="matrix(1.3333333,0,0,-1.3333333,1198.0481,838.86065)"
     clip-path="url(#clipPath41478)"
     style="stroke-width:1.00062995;stroke-dasharray:none;fill:#500f11;fill-opacity:0"><path
       d="m 0,0 c 0,11.202 -8.584,21.015 -19.215,21.015 h -5.887 V -20.77 h 5.887 C -8.584,-20.77 0,-11.039 0,0 m 8.342,0 c 0,-15.618 -12.102,-28.457 -27.557,-28.457 h -5.641 -8.587 v 57.076 h 8.587 5.641 C -3.76,28.619 8.342,15.699 8.342,0"
       style="fill:#500f11;fill-opacity:0;fill-rule:nonzero;stroke:none;stroke-width:1.00062995;stroke-dasharray:none"
       id="path40557" /></g><g
     id="g40559"
     transform="matrix(1.3333333,0,0,-1.3333333,1218.1002,850.74478)"
     clip-path="url(#clipPath41472)"
     style="stroke-width:1.00062995;stroke-dasharray:none;fill:#500f11;fill-opacity:0"><path
       d="M 0,0 V 21.261 H 8.421 V 15.372 0 c 0,-7.195 4.661,-12.43 12.512,-12.43 5.887,0 12.265,5.235 12.346,12.347 v 0.491 14.882 5.971 h 8.179 v -40.559 h -8.26 v 5.152 c -3.19,-3.516 -7.359,-5.969 -12.265,-5.969 C 8.584,-20.115 0,-11.122 0,0"
       style="fill:#500f11;fill-opacity:0;fill-rule:nonzero;stroke:none;stroke-width:1.00062995;stroke-dasharray:none"
       id="path40561" /></g><g
     id="g40563"
     transform="matrix(1.3333333,0,0,-1.3333333,1323.5156,832.53771)"
     clip-path="url(#clipPath41466)"
     style="stroke-width:1.00062995;stroke-dasharray:none;fill:#500f11;fill-opacity:0"><path
       d="m 0,0 h -10.303 v -33.28 h -8.259 V 0 h -10.875 v 7.605 h 10.875 v 16.436 h 8.259 V 7.605 H 0 Z"
       style="fill:#500f11;fill-opacity:0;fill-rule:nonzero;stroke:none;stroke-width:1.00062995;stroke-dasharray:none"
       id="path40565" /></g><g
     id="g40567"
     transform="matrix(1.3333333,0,0,-1.3333333,1386.0872,822.50651)"
     clip-path="url(#clipPath41460)"
     style="stroke-width:1.00062995;stroke-dasharray:none;fill:#500f11;fill-opacity:0"><path
       d="m 0,0 -23.385,-51.925 h -8.75 l 4.497,9.649 1.635,3.761 -1.553,3.517 L -41.784,0 h 7.932 l 10.14,-25.677 1.717,-4.742 2.045,4.661 L -8.257,0 Z"
       style="fill:#500f11;fill-opacity:0;fill-rule:nonzero;stroke:none;stroke-width:1.00062995;stroke-dasharray:none"
       id="path40569" /></g><g
     id="g40571"
     transform="matrix(1.3333333,0,0,-1.3333333,913.62958,572.14719)"
     clip-path="url(#clipPath41454)"><path
       d="m 0,0 c -0.684,0.712 -1.224,1.424 -1.766,2.05 -3.615,-4.555 -7.232,-1.68 -6.149,2.592 -1.025,0.227 -2.164,0.711 -2.762,1.651 1.31,-0.086 2.221,0.256 3.331,0.455 1.111,0.256 2.449,0.398 3.901,-0.028 C -1.964,6.236 -0.826,5.012 -0.37,3.788 0.171,2.535 0.228,1.253 0,0 m 172.229,-74.854 c -5.011,-2.22 -11.73,-4.071 -19.304,-4.071 -5.523,0 -11.503,0.996 -17.539,3.56 -0.597,0.256 -0.939,0.91 -0.826,1.537 0.37,2.135 0.541,4.214 0.541,6.206 0,9.767 -4.214,18.138 -10.677,25.427 -6.435,7.26 -15.147,13.353 -23.888,18.336 -7.061,4.014 -15.346,6.121 -23.576,7.915 -8.227,1.822 -16.343,3.302 -23.09,6.349 -2.933,1.339 -5.609,2.962 -7.887,5.069 0.142,-1.453 0.227,-2.876 0.227,-4.243 0,-3.303 -0.427,-6.35 -1.481,-8.969 -1.053,-2.591 -2.789,-4.755 -5.352,-5.95 -3.388,-1.566 -6.15,-3.759 -8.599,-5.951 -2.476,-2.193 -4.584,-4.357 -6.804,-5.865 -1.481,-0.997 -3.047,-1.709 -4.841,-1.709 -1.907,0 -3.815,0.854 -5.665,2.563 -2.079,1.822 -2.876,4.242 -2.847,6.633 0.027,2.677 0.796,5.439 1.537,8.514 0.768,3.046 1.48,6.378 1.48,10.022 0,3.417 -0.626,7.118 -2.477,11.218 -0.342,0.712 0,1.566 0.712,1.88 0.712,0.341 1.566,0.028 1.879,-0.712 2.021,-4.471 2.734,-8.628 2.734,-12.386 0,-4.015 -0.798,-7.574 -1.538,-10.706 -0.769,-3.103 -1.48,-5.751 -1.48,-7.83 0.028,-1.879 0.455,-3.188 1.907,-4.526 1.566,-1.396 2.733,-1.823 3.758,-1.823 0.969,0 2.022,0.399 3.246,1.224 1.253,0.827 2.591,2.05 4.1,3.446 3.018,2.762 6.663,6.264 11.703,8.598 1.793,0.827 3.046,2.307 3.9,4.442 0.854,2.107 1.281,4.841 1.281,7.887 0,2.62 -0.313,5.467 -0.825,8.342 v 0.029 c -0.513,2.876 -1.253,5.779 -2.107,8.542 -1.709,5.466 -3.958,10.42 -5.979,13.353 -0.057,0.057 -0.086,0.085 -0.115,0.142 -0.056,0.086 -0.113,0.171 -0.142,0.256 l -0.142,0.229 c -0.114,0.227 -0.313,0.54 -0.627,0.967 -0.569,0.798 -1.48,1.936 -2.761,3.133 -2.62,2.448 -6.833,5.238 -13.268,6.633 -2.648,0.57 -5.097,0.826 -7.375,0.826 -7.972,0 -13.951,-3.018 -18.165,-6.577 -4.214,-3.531 -6.606,-7.745 -7.118,-9.624 -0.74,-2.562 -1.253,-5.153 -1.993,-7.516 -0.74,-2.363 -1.68,-4.585 -3.389,-6.236 -1.224,-1.195 -3.103,-2.22 -5.01,-3.53 -1.88,-1.253 -3.731,-2.705 -4.869,-4.442 l 2.534,-1.395 c 2.021,-1.139 2.078,-4.015 0.085,-5.211 l -2.904,-1.736 c 1.082,-3.189 2.534,-5.268 4.271,-6.634 2.192,-1.738 5.011,-2.42 8.599,-2.42 3.075,0 6.662,0.512 10.677,1.281 0.797,0.142 1.537,-0.371 1.679,-1.139 0.143,-0.769 -0.37,-1.509 -1.139,-1.68 -4.071,-0.74 -7.829,-1.309 -11.217,-1.309 -1.453,0 -2.876,0.113 -4.214,0.369 0.113,-0.484 0.399,-1.025 1.167,-1.622 1.167,-0.855 3.588,-1.737 8.257,-1.709 0.882,0 1.822,0.029 2.847,0.086 0.94,0.056 1.822,0.085 2.676,0.085 7.147,0.028 11.788,-2.021 14.636,-5.239 2.818,-3.217 3.729,-7.346 4.185,-11.218 1.993,-16.656 11.588,-27.846 18.251,-34.423 2.249,-2.193 4.1,-3.844 5.324,-5.097 l 0.114,-0.113 c 7.687,-10.137 8.997,-19.903 8.997,-27.904 0,-4.099 -0.342,-7.773 -0.342,-10.762 0,-1.537 -0.17,-2.704 -0.598,-3.673 -0.427,-0.996 -1.11,-1.708 -1.765,-2.221 -1.367,-1.053 -2.733,-1.679 -4.612,-4.014 -1.082,-1.395 -1.481,-2.591 -1.481,-3.502 0,-1.025 0.427,-1.794 1.338,-2.506 0.57,-0.399 1.367,-0.74 2.335,-0.94 -0.029,0.085 -0.029,0.171 -0.029,0.256 0,1.766 0.826,3.389 1.794,4.869 0.997,1.481 2.193,2.82 3.274,3.816 0.741,0.655 1.367,1.138 1.965,1.48 0.228,0.114 0.569,0.428 0.911,1.168 0.342,0.739 0.683,1.878 0.911,3.388 0.513,2.989 0.741,7.46 0.741,13.496 0,5.978 -0.769,11.759 -3.133,18.478 -2.391,6.719 -6.405,14.407 -12.955,23.974 -0.455,0.654 -0.284,1.538 0.371,1.993 0.626,0.427 1.509,0.256 1.965,-0.37 6.662,-9.738 10.79,-17.596 13.296,-24.629 2.505,-7.032 3.303,-13.239 3.303,-19.446 0,-4.585 -0.114,-8.314 -0.427,-11.275 -0.285,-2.961 -0.741,-5.154 -1.481,-6.805 -0.512,-1.082 -1.196,-1.965 -2.192,-2.506 -0.171,-0.085 -0.741,-0.483 -1.338,-1.054 -0.627,-0.569 -1.31,-1.28 -1.937,-2.078 -1.309,-1.538 -2.277,-3.445 -2.22,-4.499 0,-0.37 0.057,-0.626 0.199,-0.853 0.085,-0.086 0.142,-0.143 0.2,-0.228 0.028,-0.029 0.056,-0.086 0.113,-0.114 0.427,-0.37 1.338,-0.797 2.933,-0.968 2.42,-0.285 4.669,-0.484 6.634,-0.484 3.16,0 5.637,0.484 7.46,1.594 1.794,1.111 3.103,2.819 3.929,5.894 1.167,4.47 4.043,14.322 4.043,27.105 0,12.3 -2.648,27.22 -12.13,42.539 -0.398,0.654 -0.199,1.537 0.485,1.964 0.655,0.398 1.537,0.199 1.936,-0.456 8.057,-13.011 11.361,-25.824 12.272,-37.013 0.085,-0.029 0.199,-0.086 0.284,-0.143 3.845,-2.477 6.862,-4.356 9.14,-6.008 2.306,-1.679 3.929,-3.132 4.925,-4.869 0.655,-1.139 0.997,-2.42 0.997,-3.758 0,-1.053 -0.199,-2.135 -0.541,-3.302 -1.196,-4.3 -2.99,-6.72 -4.925,-8.144 -1.937,-1.423 -3.816,-1.907 -4.954,-2.591 -0.77,-0.455 -1.253,-0.882 -1.681,-1.822 -0.598,-1.338 -0.883,-2.534 -0.883,-3.444 0.029,-1.197 0.371,-1.909 1.083,-2.478 0.513,-0.428 1.31,-0.768 2.448,-0.94 0.085,2.336 1.509,4.47 3.361,6.122 1.935,1.68 4.469,2.876 7.089,2.904 h 0.199 c 1.309,0 2.22,0.484 3.103,1.338 0.855,0.854 1.595,2.164 2.136,3.616 1.082,2.933 1.395,6.464 1.395,8.058 0,0.142 0,0.285 -0.028,0.398 l -0.143,0.143 c -0.313,0.285 -0.826,0.655 -1.451,1.11 -1.311,0.911 -3.133,2.136 -5.155,3.588 -4.071,2.933 -8.997,6.861 -12.356,11.787 -2.249,3.274 -3.787,7.033 -3.787,11.19 -0.029,7.63 1.908,14.463 6.207,20.357 4.271,5.894 10.819,10.791 19.959,14.863 0.712,0.313 1.538,0 1.879,-0.711 0.313,-0.741 0,-1.567 -0.741,-1.88 -8.798,-3.929 -14.89,-8.57 -18.791,-13.951 -3.9,-5.353 -5.666,-11.503 -5.666,-18.678 0,-2.819 0.855,-5.467 2.278,-7.972 1.423,-2.478 3.417,-4.812 5.609,-6.919 4.385,-4.214 9.51,-7.432 12.356,-9.453 0.827,-0.598 1.481,-1.081 1.965,-1.594 0.257,-0.285 0.541,-0.569 0.684,-1.281 0.028,-0.285 0.028,-0.599 0.028,-0.997 0,-1.424 -0.199,-3.872 -0.797,-6.435 -0.627,-2.591 -1.651,-5.296 -3.559,-7.231 -1.252,-1.311 -3.018,-2.222 -5.125,-2.194 h -0.199 c -1.708,0 -3.702,-0.882 -5.21,-2.22 -1.538,-1.31 -2.45,-3.018 -2.42,-4.158 0,-0.284 0.028,-0.541 0.113,-0.768 0.057,-0.143 0.114,-0.256 0.171,-0.37 0.227,-0.342 0.569,-0.712 1.139,-1.054 1.168,-0.683 3.331,-1.252 6.691,-1.252 8.086,0.028 12.983,2.306 16.769,6.178 3.816,3.845 6.464,9.51 9.368,16.229 0.94,2.164 1.282,3.987 1.282,5.524 0,2.421 -0.855,4.215 -2.079,5.808 -1.224,1.595 -2.847,2.905 -4.242,4.072 -0.94,0.796 -1.823,1.509 -2.449,2.448 -0.341,0.513 -0.627,1.168 -0.627,1.908 v 0.143 c 0.03,0.797 0.371,1.537 0.827,2.107 0.483,0.541 1.082,0.968 1.736,1.366 1.309,0.769 2.99,1.367 4.926,2.078 3.9,1.396 8.968,3.104 14.065,6.265 0.484,0.314 1.082,0.284 1.567,-0.029 10.79,-7.374 19.788,-10.421 26.905,-10.421 7.204,0 12.585,3.018 16.571,8.228 3.331,4.386 5.581,10.365 6.663,17.341 -1.538,-1.111 -3.559,-2.25 -5.951,-3.304"
       style="fill:#ffffff;fill-opacity:1;fill-rule:nonzero;stroke:none"
       id="path40573" /></g><g
     id="g40575"
     transform="matrix(1.3333333,0,0,-1.3333333,1153.0872,659.75198)"
     clip-path="url(#clipPath41448)"
     style="fill:#500f11;fill-opacity:1"><path
       d="m 0,0 c -0.826,-9.111 -3.331,-17.112 -7.744,-22.949 -4.386,-5.837 -10.791,-9.395 -18.85,-9.367 -7.744,0 -16.969,3.218 -27.76,10.393 -6.834,-4.043 -13.41,-5.695 -16.941,-7.261 -1.225,-0.513 -2.05,-1.024 -2.307,-1.395 l -0.169,-0.399 0.056,-0.171 0.427,-0.568 c 0.427,-0.485 1.14,-1.082 1.965,-1.766 1.651,-1.395 3.787,-3.132 5.296,-5.638 0.967,-1.679 1.651,-3.701 1.651,-6.092 0,-1.994 -0.456,-4.186 -1.538,-6.663 -2.903,-6.72 -5.608,-12.699 -9.907,-17.083 -4.3,-4.414 -10.194,-7.062 -18.822,-7.034 -2.76,0 -4.896,0.342 -6.605,0.941 -1.623,0.569 -2.818,1.451 -3.53,2.619 -0.058,0.028 -0.085,0.086 -0.115,0.142 -0.483,0.797 -0.711,1.708 -0.711,2.591 0,0.057 0,0.142 0.029,0.2 0.085,2.334 1.509,4.469 3.359,6.121 1.937,1.68 4.471,2.876 7.09,2.904 h 0.199 c 1.31,0 2.221,0.484 3.104,1.339 0.853,0.853 1.594,2.163 2.135,3.615 1.082,2.933 1.395,6.464 1.395,8.058 0,0.142 0,0.285 -0.028,0.399 l -0.143,0.142 c -0.312,0.285 -0.825,0.655 -1.451,1.111 -1.311,0.91 -3.133,2.135 -5.154,3.587 -4.072,2.932 -8.997,6.862 -12.358,11.787 -2.249,3.274 -3.786,7.033 -3.786,11.19 -0.028,7.63 1.908,14.464 6.206,20.358 4.272,5.893 10.82,10.791 19.96,14.863 0.712,0.313 1.537,0 1.879,-0.713 0.314,-0.74 0,-1.566 -0.74,-1.879 -8.798,-3.929 -14.892,-8.57 -18.792,-13.951 -3.901,-5.353 -5.665,-11.503 -5.665,-18.678 0,-2.819 0.853,-5.466 2.277,-7.972 1.424,-2.478 3.417,-4.813 5.609,-6.919 4.384,-4.214 9.509,-7.431 12.357,-9.452 0.825,-0.599 1.48,-1.083 1.965,-1.595 0.256,-0.285 0.541,-0.569 0.683,-1.281 0.029,-0.285 0.029,-0.598 0.029,-0.997 0,-1.423 -0.2,-3.872 -0.797,-6.435 -0.627,-2.591 -1.653,-5.296 -3.56,-7.231 -1.253,-1.311 -3.018,-2.222 -5.125,-2.193 h -0.199 c -1.709,0 -3.701,-0.883 -5.211,-2.221 -1.537,-1.31 -2.448,-3.018 -2.42,-4.157 0,-0.285 0.028,-0.541 0.114,-0.769 0.057,-0.142 0.114,-0.256 0.171,-0.369 0.228,-0.342 0.57,-0.712 1.139,-1.054 1.167,-0.684 3.331,-1.253 6.69,-1.253 8.087,0.028 12.984,2.307 16.771,6.179 3.815,3.843 6.464,9.509 9.368,16.228 0.939,2.164 1.28,3.987 1.28,5.525 0,2.42 -0.853,4.213 -2.078,5.807 -1.224,1.595 -2.846,2.905 -4.242,4.073 -0.939,0.796 -1.822,1.508 -2.449,2.448 -0.342,0.512 -0.626,1.168 -0.626,1.907 v 0.144 c 0.028,0.796 0.37,1.537 0.825,2.106 0.484,0.541 1.082,0.968 1.737,1.366 1.31,0.77 2.991,1.366 4.926,2.079 3.901,1.395 8.969,3.103 14.066,6.264 0.483,0.313 1.082,0.284 1.565,-0.028 10.791,-7.375 19.788,-10.421 26.906,-10.421 7.204,0 12.586,3.018 16.572,8.228 3.331,4.385 5.58,10.364 6.662,17.34 -1.537,-1.111 -3.559,-2.249 -5.951,-3.304 -5.01,-2.22 -11.73,-4.071 -19.304,-4.071 -5.524,0 -11.502,0.996 -17.538,3.56 -0.599,0.256 -0.941,0.911 -0.826,1.537 0.37,2.135 0.541,4.214 0.541,6.207 0,9.765 -4.214,18.137 -10.678,25.426 -6.434,7.26 -15.147,13.353 -23.888,18.336 -7.061,4.015 -15.347,6.121 -23.575,7.915 -8.229,1.822 -16.343,3.303 -23.091,6.35 -2.933,1.338 -5.61,2.961 -7.887,5.068 -1.196,1.11 -2.306,2.334 -3.246,3.729 -0.086,0.114 -0.142,0.257 -0.199,0.371 v 0.028 c -0.171,0.569 0.028,1.225 0.569,1.566 0.655,0.455 1.537,0.285 1.993,-0.37 0.057,-0.086 0.114,-0.171 0.171,-0.228 2.335,-3.36 5.694,-5.723 9.795,-7.574 4.157,-1.879 9.111,-3.188 14.378,-4.384 10.564,-2.392 22.465,-4.3 32.516,-9.994 8.883,-5.097 17.823,-11.304 24.6,-18.935 6.776,-7.601 11.388,-16.684 11.388,-27.304 0,-1.794 -0.141,-3.616 -0.427,-5.524 5.296,-2.106 10.536,-2.932 15.404,-2.932 6.207,0 11.873,1.338 16.314,3.075 4.443,1.707 7.717,3.872 8.998,5.239 0.37,0.369 0.541,0.682 0.541,0.711 0.228,0.684 0.94,1.082 1.652,0.911 C -0.427,1.367 0.057,0.712 0,0"
       style="fill:#500f11;fill-opacity:1;fill-rule:nonzero;stroke:none"
       id="path40577" /></g><g
     id="g40579"
     transform="matrix(1.3333333,0,0,-1.3333333,1004.8412,711.79945)"
     clip-path="url(#clipPath41442)"
     style="fill:#500f11;fill-opacity:1"><path
       d="m 0,0 c 0,-13.183 -2.99,-23.404 -4.129,-27.846 -0.939,-3.558 -2.733,-6.092 -5.239,-7.601 -2.476,-1.51 -5.494,-1.993 -8.911,-1.993 -2.136,0 -4.471,0.199 -6.976,0.512 -1.908,0.228 -3.36,0.711 -4.413,1.594 -0.029,0.029 -0.086,0.058 -0.114,0.114 -0.911,0.797 -1.367,1.936 -1.395,3.018 -0.029,0.086 -0.029,0.171 -0.029,0.257 0,1.764 0.826,3.387 1.794,4.868 0.996,1.48 2.192,2.819 3.274,3.815 0.741,0.656 1.367,1.139 1.965,1.481 0.228,0.114 0.569,0.427 0.911,1.168 0.342,0.74 0.683,1.879 0.911,3.387 0.513,2.991 0.741,7.46 0.741,13.497 0,5.979 -0.769,11.759 -3.133,18.478 -2.391,6.72 -6.406,14.407 -12.954,23.974 -0.456,0.654 -0.285,1.537 0.369,1.993 0.627,0.427 1.51,0.257 1.965,-0.37 6.662,-9.738 10.791,-17.596 13.297,-24.629 2.505,-7.032 3.302,-13.239 3.302,-19.446 0,-4.584 -0.113,-8.314 -0.426,-11.276 -0.286,-2.96 -0.741,-5.153 -1.481,-6.805 -0.513,-1.082 -1.196,-1.964 -2.193,-2.505 -0.17,-0.085 -0.74,-0.484 -1.338,-1.053 -0.626,-0.569 -1.31,-1.281 -1.936,-2.078 -1.31,-1.538 -2.278,-3.446 -2.22,-4.499 0,-0.37 0.056,-0.626 0.199,-0.855 0.085,-0.085 0.142,-0.142 0.199,-0.227 0.028,-0.029 0.057,-0.086 0.114,-0.114 0.427,-0.371 1.339,-0.797 2.932,-0.968 2.42,-0.285 4.67,-0.485 6.635,-0.485 3.16,0 5.637,0.485 7.459,1.595 1.794,1.11 3.104,2.818 3.929,5.895 1.168,4.469 4.044,14.321 4.044,27.104 0,12.301 -2.649,27.22 -12.13,42.538 -0.398,0.655 -0.199,1.537 0.484,1.964 0.655,0.399 1.538,0.2 1.937,-0.455 C -4.499,31.035 -1.196,18.223 -0.284,7.033 -0.199,5.837 -0.114,4.698 -0.085,3.56 -0.028,2.363 0,1.168 0,0"
       style="fill:#500f11;fill-opacity:1;fill-rule:nonzero;stroke:none"
       id="path40581" /></g><g
     id="g40583"
     transform="matrix(1.3333333,0,0,-1.3333333,970.10478,717.91145)"
     clip-path="url(#clipPath41436)"
     style="fill:#500f11;fill-opacity:1"><path
       d="m 0,0 c 0,-4.1 -0.342,-7.772 -0.342,-10.763 0,-1.537 -0.171,-2.705 -0.597,-3.672 -0.428,-0.997 -1.111,-1.709 -1.766,-2.22 -1.366,-1.054 -2.733,-1.681 -4.612,-4.016 -1.082,-1.394 -1.481,-2.591 -1.481,-3.502 0,-1.025 0.427,-1.794 1.338,-2.506 0.569,-0.397 1.367,-0.739 2.335,-0.939 0.598,-0.142 1.281,-0.198 2.021,-0.198 0.399,0 0.769,-0.171 0.997,-0.4 0.086,-0.085 0.143,-0.142 0.199,-0.227 0.142,-0.228 0.228,-0.513 0.228,-0.797 0,-0.798 -0.626,-1.424 -1.424,-1.424 -0.228,0 -0.427,0 -0.626,0.028 -2.136,0.085 -3.986,0.655 -5.381,1.652 -1.566,1.11 -2.563,2.875 -2.534,4.811 0,1.737 0.711,3.531 2.107,5.268 2.392,3.017 4.584,3.958 5.381,4.755 0.284,0.284 0.455,0.484 0.597,0.826 0.228,0.483 0.371,1.223 0.371,2.561 0,3.19 0.341,6.806 0.341,10.763 0,7.687 -1.195,16.543 -8.285,26.024 l -0.028,0.029 c -1.082,1.138 -3.018,2.818 -5.267,5.039 -2.278,2.249 -4.926,5.04 -7.517,8.428 -5.182,6.776 -10.165,15.944 -11.588,27.675 v 0.029 c -0.399,3.673 -1.282,7.146 -3.474,9.652 -2.193,2.477 -5.837,4.242 -12.499,4.27 -0.798,0 -1.623,-0.028 -2.506,-0.085 -1.082,-0.057 -2.079,-0.085 -3.018,-0.085 -4.982,0 -8.029,0.882 -9.937,2.249 -1.908,1.395 -2.448,3.332 -2.42,4.556 v 0.198 c 0.028,0.798 0.227,1.339 0.256,1.453 0.256,0.712 1.082,1.11 1.822,0.825 0.741,-0.256 1.111,-1.082 0.854,-1.821 l -0.028,-0.115 -0.057,-0.54 c 0,-0.2 0.029,-0.4 0.085,-0.627 0.114,-0.484 0.399,-1.025 1.168,-1.623 1.167,-0.854 3.587,-1.737 8.257,-1.708 0.883,0 1.822,0.029 2.847,0.085 0.94,0.057 1.822,0.086 2.677,0.086 7.146,0.028 11.787,-2.022 14.634,-5.24 2.819,-3.216 3.73,-7.345 4.185,-11.217 1.994,-16.657 11.589,-27.847 18.251,-34.424 2.249,-2.192 4.101,-3.843 5.325,-5.095 l 0.113,-0.115 C -1.31,17.768 0,8.001 0,0"
       style="fill:#500f11;fill-opacity:1;fill-rule:nonzero;stroke:none"
       id="path40585" /></g><g
     id="g40587"
     transform="matrix(1.3333333,0,0,-1.3333333,959.20958,541.30665)"
     clip-path="url(#clipPath41430)"
     style="fill:#500f11;fill-opacity:1"><path
       d="m 0,0 c -0.2,-0.085 -0.427,-0.143 -0.626,-0.143 -0.399,0 -0.77,0.171 -1.054,0.456 -0.057,0.057 -0.086,0.085 -0.114,0.143 -0.057,0.085 -0.114,0.17 -0.142,0.255 l -0.143,0.228 c -0.114,0.228 -0.313,0.541 -0.626,0.969 -0.57,0.797 -1.481,1.936 -2.762,3.132 -2.619,2.448 -6.833,5.238 -13.268,6.634 -2.648,0.569 -5.097,0.825 -7.374,0.825 -7.973,0 -13.952,-3.018 -18.166,-6.577 -4.213,-3.53 -6.605,-7.744 -7.118,-9.624 -0.74,-2.562 -1.253,-5.153 -1.993,-7.516 -0.74,-2.363 -1.679,-4.584 -3.388,-6.236 -1.225,-1.196 -3.103,-2.22 -5.011,-3.53 -1.88,-1.253 -3.73,-2.705 -4.869,-4.442 -0.029,-0.029 -0.029,-0.057 -0.057,-0.085 -0.768,-1.139 -1.224,-2.392 -1.224,-3.873 0,-0.484 0.057,-0.968 0.171,-1.537 v -0.029 c 0.256,-1.024 0.512,-1.964 0.825,-2.818 1.082,-3.189 2.534,-5.268 4.271,-6.634 2.192,-1.737 5.011,-2.421 8.599,-2.421 3.075,0 6.663,0.513 10.677,1.281 0.797,0.144 1.538,-0.369 1.68,-1.138 0.142,-0.769 -0.371,-1.509 -1.139,-1.68 -4.071,-0.74 -7.83,-1.31 -11.218,-1.31 -1.452,0 -2.876,0.114 -4.214,0.371 -1.025,0.171 -1.993,0.455 -2.933,0.825 -1.138,0.456 -2.221,1.054 -3.217,1.822 -2.278,1.823 -4.044,4.471 -5.267,8.115 -0.314,0.939 -0.599,1.936 -0.855,2.99 v 0.028 c -0.142,0.741 -0.227,1.452 -0.227,2.135 0,1.88 0.541,3.531 1.394,4.955 0.542,0.968 1.225,1.822 1.994,2.591 1.879,1.907 4.128,3.303 5.951,4.47 1.195,0.768 2.22,1.452 2.676,1.936 1.167,1.111 1.993,2.847 2.648,5.039 0.683,2.193 1.224,4.784 1.993,7.46 0.769,2.705 3.388,7.09 8.001,11.047 4.641,3.901 11.303,7.233 20.016,7.233 2.477,0 5.153,-0.285 7.972,-0.883 C -11.161,12.955 -6.463,9.88 -3.531,7.146 -1.025,4.783 0.199,2.733 0.541,2.107 0.598,2.05 0.626,1.993 0.654,1.908 0.996,1.196 0.711,0.341 0,0"
       style="fill:#500f11;fill-opacity:1;fill-rule:nonzero;stroke:none"
       id="path40589" /></g><g
     id="g40591"
     transform="matrix(1.3333333,0,0,-1.3333333,972.64838,581.24412)"
     clip-path="url(#clipPath41424)"
     style="fill:#500f11;fill-opacity:1"><path
       d="m 0,0 c 0,-3.303 -0.427,-6.349 -1.48,-8.969 -1.054,-2.591 -2.791,-4.754 -5.354,-5.95 -3.388,-1.566 -6.149,-3.759 -8.598,-5.951 -2.477,-2.192 -4.584,-4.357 -6.805,-5.865 -1.481,-0.997 -3.046,-1.709 -4.84,-1.709 -1.908,0 -3.816,0.855 -5.666,2.563 -2.079,1.822 -2.876,4.242 -2.847,6.634 0.028,2.677 0.797,5.438 1.537,8.513 0.768,3.047 1.481,6.378 1.481,10.023 0,3.416 -0.627,7.118 -2.477,11.217 -0.342,0.712 0,1.566 0.711,1.88 0.712,0.342 1.567,0.028 1.88,-0.712 2.021,-4.47 2.733,-8.627 2.733,-12.385 0,-4.015 -0.797,-7.574 -1.538,-10.706 -0.768,-3.104 -1.48,-5.751 -1.48,-7.83 0.028,-1.879 0.455,-3.189 1.907,-4.527 1.566,-1.395 2.733,-1.822 3.759,-1.822 0.968,0 2.021,0.398 3.245,1.224 1.253,0.826 2.592,2.05 4.101,3.445 3.018,2.762 6.662,6.264 11.702,8.599 1.793,0.825 3.046,2.306 3.9,4.442 0.855,2.107 1.282,4.84 1.282,7.886 0,2.62 -0.313,5.467 -0.826,8.343 v 0.028 c -0.513,2.876 -1.253,5.78 -2.107,8.542 -1.709,5.466 -3.958,10.42 -5.979,13.353 -0.057,0.057 -0.086,0.086 -0.114,0.143 -0.057,0.085 -0.114,0.171 -0.142,0.256 -0.257,0.627 -0.086,1.338 0.483,1.737 0.656,0.455 1.538,0.285 1.993,-0.342 0.058,-0.057 0.086,-0.114 0.114,-0.199 C -7.118,28.5 -4.84,23.433 -3.047,17.767 -2.193,15.034 -1.48,12.187 -0.94,9.339 -0.626,7.631 -0.371,5.922 -0.228,4.243 -0.085,2.791 0,1.367 0,0"
       style="fill:#500f11;fill-opacity:1;fill-rule:nonzero;stroke:none"
       id="path40593" /></g><g
     id="g40595"
     transform="matrix(1.3333333,0,0,-1.3333333,873.83064,584.01492)"
     clip-path="url(#clipPath41418)"
     style="fill:#500f11;fill-opacity:1"><path
       d="m 0,0 -2.905,-1.737 -0.683,-0.399 c -0.683,-0.398 -1.395,-0.512 -2.078,-0.37 -1.338,0.228 -2.449,1.367 -2.478,2.904 L -8.2,4.584 c -0.029,1.708 1.309,2.961 2.846,3.018 0.542,0.057 1.111,-0.086 1.624,-0.37 L -2.62,6.605 -0.085,5.21 C 1.936,4.072 1.993,1.196 0,0"
       style="fill:#500f11;fill-opacity:1;fill-rule:nonzero;stroke:none"
       id="path40597" /></g><g
     id="g40599"
     transform="matrix(1.3333333,0,0,-1.3333333,911.03384,569.55145)"
     clip-path="url(#clipPath41412)"
     style="fill:#500f11;fill-opacity:1"><path
       d="m 0,0 c -0.683,0.712 -1.224,1.424 -1.765,2.05 -0.142,0.2 -0.313,0.37 -0.484,0.541 -0.712,0.741 -1.338,1.196 -2.078,1.424 -0.769,0.285 -1.766,0.341 -2.99,0.512 -0.2,0.029 -0.37,0.057 -0.599,0.114 -1.024,0.228 -2.163,0.712 -2.761,1.651 1.31,-0.085 2.221,0.257 3.332,0.456 1.11,0.256 2.448,0.399 3.9,-0.028 C -1.965,6.236 -0.826,5.011 -0.37,3.787 0.171,2.534 0.228,1.253 0,0"
       style="fill:#500f11;fill-opacity:1;fill-rule:nonzero;stroke:none"
       id="path40601" /></g><g
     id="g40603"
     transform="matrix(1.3333333,0,0,-1.3333333,909.21158,566.13479)"
     clip-path="url(#clipPath41406)"
     style="fill:#500f11;fill-opacity:1"><path
       d="m 0,0 c -0.142,-0.171 -0.256,-0.342 -0.398,-0.512 -3.617,-4.556 -7.232,-1.68 -6.151,2.591 0.058,0.284 0.171,0.569 0.285,0.882 C -1.48,3.474 -0.569,1.708 0,0"
       style="fill:#500f11;fill-opacity:1;fill-rule:nonzero;stroke:none"
       id="path40605" /></g><g
     id="g40607"
     transform="matrix(1.3333333,0,0,-1.3333333,1024.9232,722.12505)"
     clip-path="url(#clipPath41400)"
     style="fill:#500f11;fill-opacity:1"><path
       d="m 0,0 c 0,-1.054 -0.199,-2.136 -0.541,-3.303 -1.195,-4.3 -2.989,-6.718 -4.925,-8.142 -1.937,-1.424 -3.815,-1.909 -4.955,-2.592 -0.768,-0.455 -1.252,-0.882 -1.68,-1.822 -0.597,-1.338 -0.881,-2.534 -0.881,-3.445 0.027,-1.196 0.369,-1.908 1.081,-2.477 0.512,-0.427 1.31,-0.769 2.449,-0.94 0.483,-0.086 1.024,-0.114 1.623,-0.114 0.597,0 1.11,-0.341 1.309,-0.854 0.085,-0.17 0.114,-0.37 0.114,-0.569 0,-0.769 -0.626,-1.424 -1.423,-1.424 -0.285,0 -0.57,0 -0.826,0.029 -2.05,0.113 -3.73,0.626 -5.011,1.623 -1.452,1.138 -2.164,2.904 -2.164,4.726 0.028,1.451 0.398,2.99 1.11,4.584 0.513,1.167 1.253,2.022 2.05,2.619 0.826,0.626 1.68,0.997 2.478,1.338 1.622,0.712 3.046,1.282 4.384,2.905 0.912,1.11 1.793,2.733 2.535,5.324 0.284,0.997 0.425,1.85 0.425,2.534 -0.027,0.911 -0.198,1.595 -0.626,2.335 -0.426,0.769 -1.138,1.565 -2.22,2.506 -1.965,1.68 -5.068,3.672 -9.452,6.463 -0.457,0.313 -0.941,0.626 -1.454,0.939 -0.655,0.399 -0.853,1.281 -0.426,1.965 0.341,0.569 1.053,0.797 1.68,0.569 0.085,-0.029 0.2,-0.085 0.284,-0.142 3.844,-2.477 6.862,-4.357 9.14,-6.008 2.306,-1.68 3.93,-3.132 4.926,-4.868 C -0.341,2.62 0,1.338 0,0"
       style="fill:#500f11;fill-opacity:1;fill-rule:nonzero;stroke:none"
       id="path40609" /></g><g
     id="g40611"
     transform="matrix(1.3333333,0,0,-1.3333333,1128.9609,765.82811)"
     clip-path="url(#clipPath41394)"
     style="fill:#500f11;fill-opacity:1"><path
       d="m 0,0 c -0.499,-0.454 -1.454,-0.837 -3.094,-0.837 h -34.772 c -2.058,0 -3.589,0.558 -4.574,1.36 -0.986,0.802 -1.535,1.883 -1.615,3.348 -0.178,2.616 1.563,6.453 6.171,10.185 0.073,-0.07 0.113,-0.14 0.186,-0.209 1.328,-1.326 3.145,-2.023 5.226,-2.442 2.117,-0.419 4.493,-0.523 7.039,-0.523 4.814,0 10.125,0.453 14.38,0.453 1.883,0 3.73,-0.593 5.419,-1.5 C -4.698,9.313 -3.79,8.649 -2.982,7.917 -0.782,5.964 0.611,3.452 0.667,1.813 0.713,0.977 0.5,0.419 0,0 m -36.216,21.136 c 0.59,1.325 1.559,2.093 3.17,2.616 0.583,0.174 1.237,0.313 1.964,0.418 0.07,0 0.175,0 0.242,0.035 0.07,0 0.141,0 0.208,0.035 1.18,0.105 2.501,0.174 3.966,0.174 2.86,0 6.185,-0.209 9.777,-0.209 2.721,0 5.009,-0.384 6.858,-1.012 0.071,-0.034 0.177,-0.069 0.284,-0.104 0.89,-0.314 1.678,-0.697 2.329,-1.116 2.135,-1.395 3.135,-3.104 3.279,-5.092 0.076,-1.36 -0.294,-2.895 -1.287,-4.499 -1.789,0.837 -3.736,1.359 -5.761,1.395 -4.393,-0.036 -9.705,-0.489 -14.378,-0.489 -3.279,0 -6.221,0.244 -8.213,0.941 -0.995,0.35 -1.751,0.768 -2.197,1.256 -0.446,0.489 -0.683,1.012 -0.762,1.815 -0.094,1.709 0.118,2.929 0.521,3.836 m 34.81,-11.44 c -0.587,0.523 -1.206,1.012 -1.858,1.43 1.151,1.918 1.671,3.871 1.567,5.755 -0.157,2.859 -1.797,5.406 -4.472,7.115 -0.543,0.349 -1.118,0.662 -1.761,0.941 -0.715,0.315 -1.5,0.628 -2.313,0.837 -1.985,0.558 -4.234,0.872 -6.779,0.872 -3.489,0 -6.811,0.174 -9.776,0.174 -1.256,0 -2.474,-0.034 -3.62,-0.138 -0.833,-0.071 -1.664,-0.175 -2.422,-0.35 -1.069,-0.209 -2.061,-0.558 -2.94,-1.08 -1.148,-0.698 -2.103,-1.71 -2.691,-3.069 -0.554,-1.327 -0.781,-2.93 -0.673,-4.883 0.017,-0.315 0.037,-0.663 0.159,-0.978 -5.286,-4.08 -7.69,-8.579 -7.511,-12.451 0.113,-2.058 1.018,-3.941 2.588,-5.196 1.57,-1.291 3.7,-1.953 6.176,-1.953 h 34.773 c 1.988,0 3.567,0.453 4.632,1.395 1.098,0.941 1.511,2.336 1.435,3.696 -0.182,2.686 -1.944,5.546 -4.514,7.883"
       style="fill:#500f11;fill-opacity:1;fill-rule:nonzero;stroke:none"
       id="path40613" /></g><g
     id="g40615"
     transform="matrix(1.3333333,0,0,-1.3333333,1129.8502,763.41011)"
     clip-path="url(#clipPath41388)"
     style="fill:#ae5d2e;fill-opacity:1"><path
       d="M 0,0 C 0.046,-0.837 -0.167,-1.395 -0.667,-1.813 -1.166,-2.268 -2.121,-2.65 -3.761,-2.65 h -34.772 c -2.058,0 -3.589,0.557 -4.574,1.36 -0.986,0.802 -1.535,1.883 -1.615,3.348 -0.178,2.616 1.563,6.453 6.171,10.184 0.073,-0.069 0.113,-0.139 0.186,-0.209 1.328,-1.325 3.145,-2.022 5.226,-2.441 2.117,-0.419 4.493,-0.524 7.039,-0.524 4.814,0 10.125,0.453 14.38,0.453 1.883,0 3.73,-0.592 5.419,-1.5 C -5.365,7.499 -4.457,6.836 -3.649,6.104 -1.449,4.15 -0.056,1.639 0,0"
       style="fill:#ae5d2e;fill-opacity:1;fill-rule:nonzero;stroke:none"
       id="path40617" /></g><g
     id="g40619"
     transform="matrix(1.3333333,0,0,-1.3333333,1123.4426,743.32025)"
     clip-path="url(#clipPath41382)"
     style="fill:#ae5d2e;fill-opacity:1"><path
       d="m 0,0 c 0.075,-1.36 -0.294,-2.895 -1.287,-4.499 -1.789,0.837 -3.736,1.359 -5.761,1.395 -4.393,-0.036 -9.705,-0.489 -14.379,-0.489 -3.278,0 -6.22,0.244 -8.213,0.942 -0.995,0.349 -1.751,0.767 -2.196,1.255 -0.446,0.489 -0.684,1.012 -0.763,1.815 -0.093,1.709 0.119,2.929 0.522,3.836 0.59,1.325 1.558,2.093 3.17,2.616 0.583,0.174 1.237,0.314 1.964,0.418 0.07,0 0.174,0 0.242,0.035 0.07,0 0.14,0 0.208,0.035 1.18,0.105 2.501,0.174 3.966,0.174 2.86,0 6.184,-0.209 9.777,-0.209 2.721,0 5.009,-0.384 6.857,-1.012 C -5.821,6.278 -5.715,6.243 -5.608,6.208 -4.719,5.895 -3.931,5.511 -3.279,5.092 -1.145,3.697 -0.145,1.988 0,0"
       style="fill:#ae5d2e;fill-opacity:1;fill-rule:nonzero;stroke:none"
       id="path40621" /></g><g
     id="g40623"
     transform="matrix(1.3333333,0,0,-1.3333333,1116.5456,725.32292)"
     clip-path="url(#clipPath41376)"
     style="fill:#ae5d2e;fill-opacity:1"><path
       d="m 0,0 c 0.069,-1.256 -0.196,-2.756 -0.932,-4.604 -1.984,0.557 -4.233,0.872 -6.779,0.872 -3.488,0 -6.81,0.173 -9.775,0.173 -1.256,0 -2.475,-0.034 -3.62,-0.138 -0.562,1.325 -0.797,2.441 -0.849,3.383 -0.099,1.779 0.422,3.104 1.331,4.325 1.33,1.813 3.587,3.278 5.632,4.778 1.004,0.768 1.937,1.534 2.687,2.511 0.096,0.139 0.193,0.279 0.255,0.419 0.775,-0.768 1.751,-1.396 2.799,-2.058 C -7.264,8.405 -4.927,7.149 -3.136,5.65 -1.34,4.08 -0.167,2.406 0,0"
       style="fill:#ae5d2e;fill-opacity:1;fill-rule:nonzero;stroke:none"
       id="path40625" /></g><g
     id="g40627"
     transform="matrix(1.3333333,0,0,-1.3333333,1119.7552,725.32292)"
     clip-path="url(#clipPath41370)"
     style="fill:#500f11;fill-opacity:1"><path
       d="m 0,0 c 0.091,-1.64 -0.23,-3.418 -1.025,-5.441 -0.12,-0.384 -0.306,-0.802 -0.492,-1.221 -0.253,-0.488 -0.796,-0.733 -1.326,-0.628 -0.106,0.035 -0.213,0.07 -0.284,0.104 -0.61,0.314 -0.894,1.047 -0.613,1.64 0.157,0.314 0.279,0.628 0.401,0.942 0.735,1.848 1.001,3.348 0.932,4.604 -0.167,2.406 -1.34,4.08 -3.136,5.65 -1.791,1.499 -4.128,2.755 -6.115,4.011 -1.048,0.662 -2.025,1.29 -2.799,2.058 -0.063,-0.14 -0.159,-0.28 -0.255,-0.419 -0.75,-0.977 -1.684,-1.743 -2.687,-2.511 -2.045,-1.5 -4.302,-2.965 -5.632,-4.778 -0.909,-1.221 -1.43,-2.546 -1.331,-4.325 0.051,-0.942 0.287,-2.058 0.848,-3.383 0.085,-0.279 0.241,-0.559 0.36,-0.837 0.279,-0.629 0.039,-1.325 -0.574,-1.605 -0.067,-0.035 -0.137,-0.035 -0.208,-0.035 -0.067,-0.035 -0.171,-0.035 -0.242,-0.035 -0.488,0 -0.957,0.279 -1.191,0.733 -0.235,0.488 -0.402,0.977 -0.567,1.429 -0.494,1.361 -0.77,2.582 -0.834,3.733 -0.131,1.779 0.272,3.313 0.968,4.604 0.697,1.29 1.649,2.371 2.68,3.278 2.06,1.849 4.462,3.209 5.814,4.604 0.895,0.872 1.341,1.639 1.329,2.476 l -0.007,0.14 c -0.017,0.314 0.07,0.627 0.302,0.837 0.197,0.244 0.502,0.383 0.816,0.383 0.349,0 0.671,-0.139 0.893,-0.383 0.256,-0.21 0.378,-0.523 0.396,-0.837 0.024,-0.454 0.257,-0.872 0.92,-1.5 0.625,-0.594 1.603,-1.256 2.756,-1.918 C -7.629,9.975 -4.755,8.44 -2.602,6.068 -1.189,4.499 -0.136,2.476 0,0"
       style="fill:#500f11;fill-opacity:1;fill-rule:nonzero;stroke:none"
       id="path40629" /></g><g
     id="g40631"
     transform="matrix(1.3333333,0,0,-1.3333333,928.21478,646.59305)"
     clip-path="url(#clipPath41364)"
     style="fill:#500f11;fill-opacity:1"><path
       d="m 0,0 c 0.163,0.036 9.772,1.894 20.228,8.784 10.445,6.865 21.76,18.951 24.752,39.024 l -4.101,0.614 C 38.051,29.667 27.705,18.713 17.944,12.246 13.066,9.027 8.346,6.971 4.861,5.729 3.119,5.107 1.686,4.689 0.699,4.428 0.206,4.297 -0.176,4.207 -0.429,4.149 L -0.787,4.072 0.001,0 Z"
       style="fill:#500f11;fill-opacity:1;fill-rule:nonzero;stroke:none"
       id="path40633" /></g><g
     id="g40635"
     transform="matrix(1.3333333,0,0,-1.3333333,988.09504,580.93359)"
     clip-path="url(#clipPath41358)"
     style="fill:#500f11;fill-opacity:1"><path
       d="m 0,0 c 0.02,7.556 3.714,13.188 9.729,18.191 9.008,7.465 23.056,12.784 34.986,18.707 5.969,2.98 11.431,6.121 15.533,9.973 4.093,3.823 6.858,8.566 6.844,14.291 -0.029,7.113 -4.045,15.16 -13.182,25.146 L 50.854,83.505 C 59.697,73.876 62.973,66.582 62.944,61.162 62.938,58.238 62.061,55.742 60.427,53.353 57.581,49.181 52.231,45.495 45.717,42.071 35.952,36.906 23.721,32.291 13.764,26.123 8.784,23.03 4.348,19.533 1.1,15.264 -2.148,11.005 -4.158,5.915 -4.147,0 Z"
       style="fill:#500f11;fill-opacity:1;fill-rule:nonzero;stroke:none"
       id="path40637" /></g><g
     id="g40639"
     transform="matrix(1.3333333,0,0,-1.3333333,1175.1237,709.27865)"
     clip-path="url(#clipPath41352)"
     style="fill:#500f11;fill-opacity:1"><path
       d="m 0,0 c 10.132,-9.165 12.723,-12.856 6.599,-19.675 -6.819,-7.592 -22.928,-22.653 -40.822,-24.107 -2.903,17.034 7.436,38.124 11.386,44.436 C -19.333,6.253 -10.514,8.668 0,0"
       style="fill:#500f11;fill-opacity:1;fill-rule:nonzero;stroke:none"
       id="path40641" /></g><g
     id="g40643"
     transform="matrix(1.3333333,0,0,-1.3333333,1202.9478,654.06705)"
     clip-path="url(#clipPath41346)"><path
       d="m 0,0 -26.952,-44.013 4.814,-3.39 32.347,40.216 z"
       style="fill:#500f11;fill-opacity:1;fill-rule:nonzero;stroke:none"
       id="path40645" /></g><g
     id="g40647"
     transform="matrix(1.3333333,0,0,-1.3333333,989.15824,759.86451)"
     clip-path="url(#clipPath41340)"><path
       d="m 0,0 c -10.588,-0.536 -21.178,-1.036 -31.767,-1.439 -10.589,-0.396 -21.178,-0.874 -31.767,-1.182 l -0.912,-0.026 -0.825,0.685 c -9.248,7.681 -17.716,16.445 -24.841,26.277 -7.194,9.784 -13.004,20.604 -17.541,31.955 -4.425,11.395 -7.462,23.383 -8.855,35.594 -0.291,3.055 -0.717,6.109 -0.793,9.183 -0.169,3.071 -0.318,6.145 -0.244,9.224 -0.009,6.161 0.59,12.308 1.335,18.433 1.714,12.224 4.964,24.249 9.588,35.738 4.715,11.454 10.954,22.288 18.411,32.187 14.935,19.759 34.789,35.983 57.566,45.936 11.318,5.101 23.301,8.684 35.524,10.748 12.215,2.178 24.695,2.494 36.996,1.421 24.64,-2.021 48.683,-10.552 68.894,-24.449 20.392,-13.662 36.792,-32.782 47.687,-54.345 5.302,-10.863 9.405,-22.284 11.781,-34.028 2.367,-11.742 3.238,-23.713 2.541,-35.521 -0.797,11.805 -2.858,23.423 -6.203,34.591 -3.482,11.126 -8.117,21.825 -14.028,31.735 -6.034,9.821 -12.914,19.099 -21.022,27.184 -8.099,8.067 -16.998,15.295 -26.696,21.208 -4.791,3.05 -9.882,5.58 -14.984,8.016 -5.191,2.254 -10.432,4.384 -15.841,6.005 -10.731,3.495 -21.897,5.541 -33.127,6.197 -5.614,0.408 -11.251,0.276 -16.858,0.018 -5.598,-0.454 -11.186,-0.991 -16.699,-2.034 -11.037,-1.965 -21.824,-5.295 -31.993,-9.993 -5.126,-2.258 -10.012,-5.016 -14.817,-7.881 -2.328,-1.554 -4.744,-2.974 -6.992,-4.645 l -3.434,-2.415 -3.313,-2.579 c -8.845,-6.879 -16.683,-15.009 -23.56,-23.854 -6.873,-8.871 -12.427,-18.694 -17.07,-28.905 -4.464,-10.3 -7.717,-21.145 -9.586,-32.26 -1.751,-11.126 -2.26,-22.487 -1.478,-33.786 0.776,-11.304 3.098,-22.509 6.731,-33.297 7.004,-21.705 19.783,-41.564 36.395,-57.734 L -63.534,2.62 C -52.945,2.313 -42.356,1.834 -31.767,1.438 -21.178,1.035 -10.588,0.534 0,0"
       style="fill:#5d241b;fill-opacity:1;fill-rule:nonzero;stroke:none"
       id="path40649" /></g></svg>
